# xmcd
#
# Track frame offsets: 
#        150
#        53074
#        92693
#        122062
#        150437
#        165221
#        220498
#
# Disc length: 3788 seconds
#
# Revision: 1
# Processed by: cddbd v1.5.2PL0 Copyright (c) Steve Scherf et al.
# Submitted via: ExactAudioCopy v1.0b3
#
DISCID=4f0eca07
DTITLE=Gerardo Núñez - Jazzpaña Live
DYEAR=2015
DGENRE=Jazz
TTITLE0=Calima
TTITLE1=Alma de Mujer
TTITLE2=Para Chick
TTITLE3=Siboney
TTITLE4=Blues for Pablo
TTITLE5=El Vito
TTITLE6=Calima (Encore)
EXTD=YEAR: 2015
EXTT0=
EXTT1=
EXTT2=
EXTT3=
EXTT4=
EXTT5=
EXTT6=
PLAYORDER=
